Coordinates
version=1
nRows=8
nColumns=40
inDegrees=yes

Units are S.I. units (second, meters, Newtons, ...)
If the header above contains a line with 'inDegrees', this indicates whether rotational values are in degrees (yes) or radians (no).

endheader
time	pelvis_tilt	pelvis_list	pelvis_rotation	pelvis_tx	pelvis_ty	pelvis_tz	hip_flexion_r	hip_adduction_r	hip_rotation_r	knee_angle_r	knee_angle_r_beta	ankle_angle_r	subtalar_angle_r	mtp_angle_r	hip_flexion_l	hip_adduction_l	hip_rotation_l	knee_angle_l	knee_angle_l_beta	ankle_angle_l	subtalar_angle_l	mtp_angle_l	lumbar_extension	lumbar_bending	lumbar_rotation	arm_flex_r	arm_add_r	arm_rot_r	elbow_flex_r	pro_sup_r	wrist_flex_r	wrist_dev_r	arm_flex_l	arm_add_l	arm_rot_l	elbow_flex_l	pro_sup_l	wrist_flex_l	wrist_dev_l
     11.82500000	      0.74608142	      6.18428234	      3.56544114	     -0.17773902	      1.09252804	      0.05236854	     34.44096963	    -10.19912402	      2.40201335	     36.15317442	      0.63099193	    -24.41860819	    -39.26060144	      0.00000000	     70.14903299	     -2.69736703	      4.20192648	    110.79456458	      1.93372995	    -14.73347717	    -30.21799979	      0.00000000	    -57.56724249	     -3.64541584	     -8.48168129	     81.32559361	     -4.01527301	      4.62382381	     38.83423982	      4.15253088	      0.00000000	      0.00000000	     89.47539312	    -19.61491224	     34.62141764	     51.52328480	     88.80169173	      0.00000000	      0.00000000
     11.83333333	      0.56850849	      6.58534939	      3.60598923	     -0.17804405	      1.09240848	      0.05254018	     33.50577967	    -10.62462919	      2.19894754	     35.40719808	      0.61797219	    -24.84835362	    -39.16724866	      0.00000000	     71.74690411	     -2.72077136	      3.77758535	    111.34382183	      1.94331629	    -14.12254791	    -29.91934199	      0.00000000	    -57.47682761	     -4.01192757	     -8.85362764	     81.25422376	     -4.10542718	      4.61016791	     38.91927807	      4.15935617	      0.00000000	      0.00000000	     89.47523275	    -19.55809897	     34.54210180	     51.63098992	     88.80449462	      0.00000000	      0.00000000
     11.84166667	      0.52394232	      6.83978828	      3.51789788	     -0.17821665	      1.09218449	      0.05288250	     32.64597369	    -10.84422903	      2.06345314	     35.06974930	      0.61208259	    -25.09918571	    -39.10390888	      0.00000000	     73.09023354	     -2.64778099	      3.55372183	    111.73305128	      1.95010963	    -13.63435798	    -29.93146843	      0.00000000	    -57.46671023	     -4.35728348	     -9.04254661	     81.19873446	     -4.15575896	      4.60653678	     38.95780364	      4.19511717	      0.00000000	      0.00000000	     89.45831244	    -19.51627030	     34.46851253	     51.74107366	     88.79377532	      0.00000000	      0.00000000
     11.85000000	      0.21820961	      7.12028727	      3.61143478	     -0.17893887	      1.09202705	      0.05279914	     32.15288108	    -11.24190236	      1.71779737	     34.84467495	      0.60815430	    -25.76376296	    -39.07989860	      0.00000000	     74.56581986	     -2.35149409	      3.30058189	    111.80076253	      1.95129141	    -12.69070473	    -29.87837537	      0.00000000	    -57.26928151	     -4.57676328	     -9.33918060	     81.20302636	     -4.25640549	      4.62594133	     39.05225429	      4.10987196	      0.00000000	      0.00000000	     89.48008126	    -19.48102861	     34.40574661	     51.85486463	     88.81710154	      0.00000000	      0.00000000
     11.85833333	      0.29067821	      7.20796359	      3.53681197	     -0.17928282	      1.09223003	      0.05307435	     31.44111576	    -11.29680050	      1.66906471	     35.04316417	      0.61161860	    -25.80566846	    -39.03205881	      0.00000000	     75.57094929	     -2.44262336	      3.18913022	    111.75892587	      1.95056122	    -12.51430165	    -29.87304109	      0.00000000	    -57.40257774	     -4.75771375	     -9.40857957	     81.22862309	     -4.29269543	      4.61296724	     39.09132367	      4.21355536	      0.00000000	      0.00000000	     89.48571719	    -19.42923823	     34.27911733	     52.01966005	     88.70255549	      0.00000000	      0.00000000
     11.86666667	     -0.06394227	      7.50881737	      3.61524307	     -0.17997207	      1.09186398	      0.05265989	     31.36537286	    -11.77400054	      1.34867832	     35.48535518	      0.61933628	    -26.38405575	    -39.33894704	      0.00000000	     76.88813777	     -2.19494385	      2.78058046	    111.54569094	      1.94683957	    -11.21719067	    -29.48181863	      0.00000000	    -57.11743805	     -4.95451899	     -9.71832787	     81.21413367	     -4.33806389	      4.66334494	     39.14807178	      3.97576817	      0.00000000	      0.00000000	     89.48573568	    -19.41548091	     34.30238322	     52.07267755	     88.81721607	      0.00000000	      0.00000000
     11.87500000	     -0.12713404	      7.50868593	      3.54850076	     -0.18054740	      1.09193094	      0.05276275	     31.08825630	    -11.81766977	      1.21545835	     36.17173823	      0.63131593	    -26.41320640	    -39.28341903	      0.00000000	     77.87242170	     -2.34262015	      2.63824282	    110.89745754	      1.93552577	    -10.80269178	    -29.14299208	      0.00000000	    -57.10442115	     -5.03905436	     -9.70332104	     81.26036318	     -4.22897384	      4.23134191	     39.11964666	      4.48802031	      0.00000000	      0.00000000	     89.49320105	    -19.39049603	     34.15086194	     52.17460874	     88.86947780	      0.00000000	      0.00000000
     11.88333333	     -0.15254220	      7.44732184	      3.49700338	     -0.18122166	      1.09211196	      0.05271995	     30.90024538	    -11.79623265	      1.15896571	     37.07785928	      0.64713072	    -26.52619948	    -39.44216708	      0.00000000	     78.60428064	     -2.26293570	      2.60249714	    110.26470064	      1.92448207	    -10.45073127	    -29.18738340	      0.00000000	    -57.12772833	     -5.04919865	     -9.63274907	     81.35451537	     -4.27522290	      4.31971901	     39.11249586	      4.36169670	      0.00000000	      0.00000000	     89.52426147	    -19.33674242	     34.02437153	     52.23501362	     88.82156263	      0.00000000	      0.00000000
